<svg width="1080" height="1080" xmlns="http://www.w3.org/2000/svg">

 <g>
  <title>Layer 1</title>
  <path stroke-width="53" d="m393,224c-1,0 -0.67963,1.02582 -1,3c-0.50653,3.12144 -0.54706,5.11237 -2,10c-1.53448,5.16191 -2.88928,10.03804 -5,16c-2.85141,8.05417 -5.13901,15.26599 -8,23c-3.87897,10.48587 -7,16 -11,25c-4,9 -7.29349,15.88138 -10,23c-3.37143,8.86755 -6.44879,15.82425 -9,23c-2.43878,6.85947 -5.44879,13.82425 -8,21c-2.43878,6.85947 -4,14 -6,21c-2,7 -3.36096,15.14221 -5,21c-1.45105,5.18597 -3.37668,11.88733 -5,18c-1.30875,4.92819 -1.69125,12.07181 -3,17c-1.62332,6.11267 -4.13083,11.95798 -6,18c-2.15158,6.9549 -3.69446,15.08264 -6,23c-1.76828,6.07233 -3.88177,14.0271 -6,23c-1.89459,8.02563 -5.28473,17.92487 -7,25c-2.40277,9.91095 -4,17 -6,26c-2,9 -2.38779,17.10059 -4,25c-1.45581,7.13306 -4.32083,13.92657 -6,22c-1.23862,5.95532 -2.19089,11.95471 -4,20c-1.11865,4.97479 -3.08075,10.9845 -4,16c-1.09662,5.98309 -2,10 -4,18c-1,4 -2.69125,11.07178 -4,16c-1.62332,6.11267 -2.98163,9.71198 -4,15c-1.32376,6.87372 -0.58759,12.01703 -1,17c-0.50171,6.06201 -2.49623,9.90778 -3,14c-0.36655,2.97754 -1.97252,6.64752 -3,11c-0.91901,3.89301 -1.11586,6.96381 -2,10c-1.15277,3.95868 -2.49623,5.90778 -3,10c-0.24437,1.98499 -0.51945,5.03876 -1,8c-0.50655,3.12146 -0.85194,5.22833 -2,8c-0.5412,1.30658 -1.48625,3.82373 -2,6c-0.4595,1.94647 -1,4 -2,6c-1,2 -1.48625,3.82373 -2,6c-0.4595,1.94647 -2.48625,3.82373 -3,6c-0.22975,0.97327 -0.77025,4.02673 -1,5c-0.51375,2.17627 -1.23463,4.15222 -2,6c-0.5412,1.30658 -0.77025,3.02673 -1,4c-0.51375,2.17627 -1.4588,2.69342 -2,4c-0.76537,1.84778 -1,4 -1,5c0,1 -0.23463,2.15222 -1,4c-0.5412,1.30658 -1,2 -1,4c0,1 -0.61731,3.07611 -1,4c-0.5412,1.30658 -0.5405,3.05353 -1,5c-0.51375,2.17627 -0.5405,3.05353 -1,5c-0.51375,2.17627 -1,3 -1,5c0,1 -1,3 -1,4c0,1 -1,1 -1,2c0,1 -0.29289,2.70709 -1,2c-0.70711,-0.70709 0,-4 2,-8l1,-3l0,-3" id="svg_1" stroke="#000" fill="none"/>
  <path stroke-width="57" d="m518,892c1,0 1.29291,-0.29291 2,-1c0.70709,-0.70709 1,-2 2,-4c2,-4 3.98535,-7.52814 6,-13c2.10168,-5.70813 3.09583,-12.97925 5,-22c2.10626,-9.97815 2.51062,-22.05554 4,-33c1.50763,-11.07825 3.7627,-25.05042 6,-35c2.71368,-12.06799 5.1958,-26.13867 8,-40c3.89575,-19.25677 8.81683,-33.03949 13,-52c2.87439,-13.02832 7.23376,-29.9353 11,-44c4.26599,-15.93115 9.41809,-26.86707 14,-42c3.30408,-10.91254 7.83826,-23.05511 12,-35c3.85101,-11.05304 8.17358,-24.25946 12,-35c3.30524,-9.27771 7.14899,-18.94696 11,-30c3.12134,-8.95865 6.46765,-18.85739 9,-28c2.461,-8.88501 5.45978,-17.84235 8,-26c2.45166,-7.87332 3.84839,-17.0451 6,-24c1.8692,-6.04202 3.54865,-12.76993 5,-17c1.65485,-4.82303 1.84723,-9.04132 3,-13c0.88416,-3.03616 2.48627,-6.82376 3,-9c0.91901,-3.89301 1.49347,-7.87857 2,-11c0.64075,-3.94836 0.80292,-9.00974 1,-11c0.50244,-5.07422 1.49622,-7.90778 2,-12c0.24438,-1.98502 0.54047,-6.0535 1,-8c0.51373,-2.17624 1.54047,-5.0535 2,-7c0.51373,-2.17624 1.48627,-4.82376 2,-7c0.68927,-2.91974 0.78986,-6.07843 2,-9c0.85571,-2.06586 1.49347,-4.87857 2,-8c0.32037,-1.97418 1.48627,-3.82376 2,-6c0.45953,-1.9465 1,-4 1,-6c0,-1 1,-2 1,-4c0,-1 1.48627,-1.82376 2,-4c0.22974,-0.97324 0.48627,-2.82376 1,-5c0.22974,-0.97324 1,-4 1,-5c0,-1 0.61731,-3.07611 1,-4c0.5412,-1.30655 1.61731,-3.07611 2,-4c0.5412,-1.30655 0.77026,-3.02676 1,-4c0.51373,-2.17624 0.23462,-3.15225 1,-5c0.5412,-1.30655 2,-3 2,-5c0,-2 1,-3 1,-4c0,-2 0.69257,-4.186 2,-6c0.8269,-1.14726 0.23462,-2.15224 1,-4c0.5412,-1.30656 0.23462,-2.15224 1,-4c0.5412,-1.30656 0.23462,-3.15224 1,-5c0.5412,-1.30656 1.61731,-4.07613 2,-5c0.5412,-1.30656 1.83984,-3.01291 2,-4c0.50653,-3.12144 1.77026,-4.02675 2,-5c0.51373,-2.17625 0.61731,-3.07613 1,-4c0.5412,-1.30656 0.23462,-2.15224 1,-4c0.5412,-1.30656 2,-2 2,-3c0,-1 0.4588,-1.69344 1,-3c0.38269,-0.92387 0.4588,-1.69344 1,-3c0.76538,-1.84776 0.4588,-2.69344 1,-4c0.38269,-0.92387 1,-2 1,-3c0,-1 1,-3 1,-4c0,-1 1,-2 1,-3c0,-1 0.4588,-1.69344 1,-3c0.38269,-0.92387 1,-1 1,-2l0,-1l0,-1l1,-1" id="svg_2" stroke="#000" fill="none"/>
  <path stroke-width="64" d="m97,378c0,-1 1,-1 2,-1c2,0 5,0 9,0c6,0 11.95332,-0.49902 20,-1c7.98454,-0.4971 18,-1 30,-1c9,0 22,-1 37,-2c15,-1 27.99118,-2.14243 43,-3c20.98956,-1.19931 35.93198,-2.99896 58,-4c23.97534,-1.08755 40.01053,-0.78192 63,-2c16.00876,-0.84821 33.98215,-1.49985 55,-2c14.99576,-0.35684 35.97324,-1.49969 50,-2c16.9892,-0.60599 36,-1 52,-1c16,0 30.97418,-0.24783 49,-2c11.98511,-1.16501 28.91937,-2.56503 41,-4c13.93768,-1.65555 27.07269,-2.5148 42,-5c10.05957,-1.67477 21.91156,-3.56937 33,-5c12.93121,-1.6684 23.9585,-2.49924 33,-3c12.9801,-0.7189 22.96259,-1.49939 33,-2c9.98761,-0.49814 19,-1 27,-2c8,-1 13.03046,-2.80615 20,-4c5.02582,-0.8609 10.86194,-2.47546 17,-4c5.90338,-1.46625 10.97736,-1.09543 15,-2c4.97479,-1.11865 9.87854,-2.49347 13,-3c3.94836,-0.64072 6.92578,-1.49756 12,-2c3.98053,-0.39417 9.06458,-0.1991 14,-1c3.12146,-0.50653 8.11237,-2.54706 13,-4c5.16193,-1.53448 8.04132,-1.84723 12,-3c6.07233,-1.76828 10.90778,-2.49622 15,-3c3.97003,-0.48874 8,-1 11,-1c3,0 5.82373,-1.48627 8,-2c1.94647,-0.4595 3,0 5,0l1,0l1,0l0,-1" id="svg_3" stroke="#000" fill="none"/>
  <path stroke-width="57" d="m59,670c1,0 2,0 3,0c1,0 3.87856,-0.49347 7,-1c3.94835,-0.64075 10,0 16,0c6,0 15,-1 25,-1c11,0 21,0 30,0c13,0 25,-1 33,-1c13,0 23.01027,0.45313 33,0c11.03401,-0.50049 23.9626,-1.49939 34,-2c14.98138,-0.74719 25,0 38,0c16,0 28.01242,0.49811 38,0c10.03738,-0.50061 19.02768,-2.22021 30,-3c7.05328,-0.50128 16.8645,-2.6532 25,-4c11.87991,-1.96667 19.93384,-2.44824 32,-4c10.95514,-1.40887 21.04813,-1.59998 31,-3c11.07132,-1.5575 19.04486,-1.59113 30,-3c12.06616,-1.55176 20.88535,-2.99707 34,-4c7.97672,-0.60999 17.05182,-1.61072 26,-3c10.07733,-1.56458 19.04187,-2.70856 27,-4c10.06635,-1.63354 16.93738,-2.38171 28,-4c8.96002,-1.31073 16.8645,-2.6532 25,-4c11.87988,-1.96667 21.99048,-3.09003 31,-4c10.98944,-1.10992 17.85156,-2.99512 28,-4c7.96106,-0.78833 16.92657,-2.3208 25,-4c5.95532,-1.23865 11.89813,-2.39899 19,-4c5.93384,-1.33765 12.9845,-3.08075 18,-4c5.98309,-1.09662 15.01672,-2.85956 24,-4c7.01477,-0.89056 17.966,-2.49951 29,-3c8.99078,-0.40784 17.98083,-1.12256 24,-2c7.97797,-1.16296 11.97736,-2.09546 16,-3c4.97479,-1.11865 7.133,-1.56952 11,-3c4.19434,-1.55157 6.87854,-2.49347 10,-3c3.94836,-0.64075 6,-1 10,-1c2,0 4.15222,0.76538 6,0c1.30658,-0.5412 2.29291,-0.29291 3,-1c0.70709,-0.70709 2,-1 3,-1c3,0 5,0 9,0c3,0 7,-1 11,-1c3,0 5.69342,-1.4588 7,-2c1.84778,-0.76538 3,-1 5,-1c2,0 3,0 4,0l1,-1l1,0l1,0" id="svg_4" stroke="#000" fill="none"/>
 </g>
</svg>